<?xml version="1.0" encoding="utf-8"?>
<!-- Generator: Adobe Illustrator 19.1.0, SVG Export Plug-In . SVG Version: 6.00 Build 0)  -->
<svg version="1.1" id="Ebene_1" xmlns="http://www.w3.org/2000/svg" xmlns:xlink="http://www.w3.org/1999/xlink" x="0px" y="0px"
	 viewBox="0 0 534 73" style="enable-background:new 0 0 534 73;" xml:space="preserve">
<style type="text/css">
	.st0{fill:#003A79;}
</style>
<g>
	<polygon class="st0" points="181.2,11.9 193.6,11.9 193.6,64 181.2,64 181.2,11.9 	"/>
	<polygon class="st0" points="90.3,11.9 90.3,32 82.2,32 82.2,11.9 69.8,11.9 69.8,64 82.2,64 82.2,43.3 90.3,43.3 90.3,64 
		102.7,64 102.7,11.9 90.3,11.9 	"/>
	<path class="st0" d="M28.5,22.3c-1.9,0-3.4,1.6-3.4,3.6V29c0,2,1.5,3.6,3.4,3.6l4.2,0c3.1,0,5.7,2.7,5.7,6.1l0.1,19.7
		c0,2.8-2.2,5.1-4.8,5.1H12.8V53.2l9.8,0.1c1.9,0,3.4-1.6,3.4-3.6v-3.1c0-2-1.5-3.6-3.4-3.6l-4-0.3c-3.1,0-5.7-2.7-5.7-6.1l0-19.5
		c0-2.8,2.2-5.1,4.8-5.1h19.8v10.3L28.5,22.3L28.5,22.3z"/>
	<path class="st0" d="M55.8,25.7c0-1.7,1.4-3.1,3.1-3.1h6.2V12.2H49.5c-3.4,0-6.1,2.7-6.1,6.1v39.6c0,3.4,2.7,6.1,6.1,6.1h15.6V53.5
		h-6.2c-1.7,0-3.1-1.4-3.1-3.1V25.7L55.8,25.7z"/>
	<path class="st0" d="M137.1,12.2h-7.7c-1.9,0-4.6,0.3-6.9,3.2v-3.5h-12.4V64h12.4V24.4c0.5-1.1,1.7-1.7,3.1-1.7h2.1
		c1.7,0,3.1,1.4,3.1,3.1v38.2h12.4V18.3C143.2,14.9,140.5,12.2,137.1,12.2L137.1,12.2z"/>
	<path class="st0" d="M175.3,42.6V32.5h-13.7v-6.8c0-1.7,1.4-3.1,3.1-3.1h10.6V12.2h-20c-3.4,0-6.1,2.7-6.1,6.1v39.6
		c0,3.4,2.7,6.1,6.1,6.1h20V53.5h-10.6c-1.7,0-3.1-1.4-3.1-3.1v-7.9H175.3L175.3,42.6z"/>
	<path class="st0" d="M265.4,42.6V32.5h-13.7v-6.8c0-1.7,1.4-3.1,3.1-3.1h10.6V12.2h-20c-3.4,0-6.1,2.7-6.1,6.1v39.6
		c0,3.4,2.7,6.1,6.1,6.1h20V53.5h-10.6c-1.7,0-3.1-1.4-3.1-3.1v-7.9H265.4L265.4,42.6z"/>
	<path class="st0" d="M450.7,22.6c-1.9,0-3.4,1.6-3.4,3.6v3.1c0,2,1.5,3.6,3.4,3.6l4.2,0c3.1,0,5.7,2.7,5.7,6.1l0.1,19.7
		c0,2.8-2.2,5.1-4.8,5.1H435V53.5l9.8,0.1c1.9,0,3.4-1.6,3.4-3.6v-3.1c0-2-1.5-3.6-3.4-3.6l-4-0.3c-3.1,0-5.7-2.7-5.7-6.1l0-19.5
		c0-2.8,2.2-5.1,4.8-5.1h19.8v10.3L450.7,22.6L450.7,22.6z"/>
	<path class="st0" d="M481.9,22.6c-1.9,0-3.4,1.6-3.4,3.6v3.1c0,2,1.5,3.6,3.4,3.6l4.2,0c3.1,0,5.7,2.7,5.7,6.1l0.1,19.7
		c0,2.8-2.2,5.1-4.8,5.1h-20.9V53.5l9.8,0.1c1.9,0,3.4-1.6,3.4-3.6v-3.1c0-2-1.5-3.6-3.4-3.6l-4-0.3c-3.1,0-5.7-2.7-5.7-6.1l0-19.5
		c0-2.8,2.2-5.1,4.8-5.1h19.8v10.3L481.9,22.6L481.9,22.6z"/>
	<polygon class="st0" points="416.8,11.9 429.2,11.9 429.2,63.7 416.8,63.7 416.8,11.9 	"/>
	<path class="st0" d="M411.2,42.3V32.2h-13.7v-6.8c0-1.7,1.4-3.1,3.1-3.1h10.6V11.9h-20c-3.4,0-6.1,2.7-6.1,6.1v39.6
		c0,3.4,2.7,6.1,6.1,6.1h20V53.2h-10.6c-1.7,0-3.1-1.4-3.1-3.1v-7.9H411.2L411.2,42.3z"/>
	<path class="st0" d="M523.6,42.3V32.2h-13.7v-6.8c0-1.7,1.4-3.1,3.1-3.1h10.6V11.9h-20c-3.4,0-6.1,2.7-6.1,6.1v39.6
		c0,3.4,2.7,6.1,6.1,6.1h20V53.2h-10.6c-1.7,0-3.1-1.4-3.1-3.1v-7.9H523.6L523.6,42.3z"/>
	<path class="st0" d="M345.1,63.7c3.2,0,6-1.5,7.4-4.1c1.5,2.6,4.2,4.1,7.4,4.1h12.2c3.4,0,6.1-2.9,6.1-6.3V11.5h-12.4v38.4
		c0,1.7-1.4,3.1-3.1,3.1h-1c-1.7,0-3.1-1.4-3.1-3.1V11.5h-12.4v38.4c0,1.7-1.4,3.1-3.1,3.1h-1c-1.7,0-3.1-1.4-3.1-3.1V11.5h-12.4
		v45.9c0,3.4,2.7,6.3,6.1,6.3H345.1L345.1,63.7z"/>
	<path class="st0" d="M212.6,22.7v30.9h5c1.7,0,3.1-1.4,3.1-3.1V25.7c0-1.7-1.4-3.1-3.1-3.1H212.6L212.6,22.7z M200.2,12.2h12.4
		h14.4c3.4,0,6.1,2.7,6.1,6.1v39.6c0,3.4-2.7,6.1-6.1,6.1h-14.4h-12.4V53.5V22.7V12.2L200.2,12.2z"/>
	<path class="st0" d="M283.1,22.7v9.7h4.9c1.7,0,3.1-1.4,3.1-3.1v-3.6c0-1.7-1.4-3.1-3.1-3.1H283.1L283.1,22.7z M270.7,12h6.7h5.7
		h14.3c3.4,0,6.2,2.9,6.2,6.3v15.1c0,2.3-1.8,4.2-4.1,4.2c2.3,0,4.1,1.8,4.1,4.2v22.2h-12.5V46.2c0-1.7-1.4-3.1-3.1-3.1h-4.9V64
		h-12.4V12L270.7,12z"/>
</g>
</svg>
