<?xml version="1.0" encoding="utf-8"?>
<!-- Generator: Adobe Illustrator 23.0.1, SVG Export Plug-In . SVG Version: 6.00 Build 0)  -->
<svg version="1.1" id="Layer_1" xmlns="http://www.w3.org/2000/svg" xmlns:xlink="http://www.w3.org/1999/xlink" x="0px" y="0px"
	 viewBox="0 0 32 32" style="enable-background:new 0 0 32 32;" xml:space="preserve">
<style type="text/css">
	.st0{fill:#231F20;}
	.st1{fill-rule:evenodd;clip-rule:evenodd;fill:#231F20;}
</style>
<g>
	<g>
		<polygon class="st0" points="3.65,26.67 3.65,26.44 2.64,26.44 2.64,27.5 2.85,27.5 2.85,27.14 3.55,27.14 3.55,26.91 2.85,26.91 
			2.85,26.67 		"/>
		<path class="st0" d="M3.96,24.51L3.9,24.43v-2.89v-0.02v-0.04v-0.04v-0.04v-0.04v-0.04V21.3v-0.04v-0.04v-0.04v-0.04V21.1v-0.07
			v-0.27V20.7v-0.21l0.47,0.87h0l1.04,1.89h0.15l1.74-3.2v0.21l-1.66,3.12H5.49l0.07,0.13h0.11l1.62-3.06c0,0.55,0,1.1,0,1.65v0.81
			l-0.3,0.33v0.13H8.8v-0.13l-0.07-0.07c0-2.36,0-2.76,0-4.41l0.3-0.33v-0.13H8.93l-0.3,0.34v4.41L8.5,22.91v-4.42l0.3-0.33v-0.13
			H7.29l-1.3,2.36c-0.13,0.24-0.26,0.48-0.39,0.71h0l-0.02,0.03l-1.56-2.87H3.79l-0.13-0.25H2.15v0.13l0.3,0.33v5.68l-0.3,0.33v0.13
			h1.82V24.51z M7.56,18.19h0.73c0.03,0,0.06,0.03,0.06,0.07c0,0.04-0.03,0.07-0.06,0.07H7.56c-0.03,0-0.06-0.03-0.06-0.07
			C7.5,18.22,7.53,18.19,7.56,18.19z M3.91,18.42H4l1.54,2.81l-0.05,0.1l-1.6-2.88L3.91,18.42z M3.39,18.33H2.66
			c-0.03,0-0.06-0.03-0.06-0.07c0-0.04,0.03-0.07,0.06-0.07h0.72c0.03,0,0.06,0.03,0.06,0.07C3.45,18.3,3.42,18.33,3.39,18.33z
			 M3.78,24.31l-0.12-0.13v-4.12l0.12,0.22V24.31z"/>
		<polygon class="st0" points="7.22,23.51 7.22,23.64 9.04,23.64 9.04,23.51 8.93,23.38 8.93,23.51 		"/>
		<polygon class="st0" points="2,28.24 4.23,28.9 4.23,28.6 3.8,28.23 8.1,28.23 8.1,27.99 2,27.99 		"/>
		<polygon class="st0" points="2.38,24.77 2.38,24.91 4.2,24.91 4.2,24.77 4.08,24.64 4.08,24.77 		"/>
		<polygon class="st0" points="19.06,23.51 15.29,23.51 15.29,23.64 19.18,23.64 19.18,21.97 19.06,21.97 		"/>
		<path class="st0" d="M25.22,19.36h1.37v0.13h-1.25l-0.32,0.4v0.13h0.11l0.32-0.41h1.14v4.55l-0.3,0.33v0.13h1.82v-0.13l-0.07-0.07
			v-4.81h1.3l0.05,0.07l0.05,0.07h0.17v-1.74h-4.84v1.74h0.12L25.22,19.36z M27.92,19.49v4.81l-0.12-0.13v-4.81h1.34l0.1,0.13H27.92
			z M25.14,18.19h4.12c0.03,0,0.06,0.03,0.06,0.07c0,0.04-0.03,0.07-0.06,0.07h-4.12c-0.04,0-0.06-0.03-0.06-0.07
			C25.08,18.22,25.1,18.19,25.14,18.19z"/>
		<polygon class="st0" points="29.72,20.1 29.85,20.1 29.85,20.03 29.85,19.76 29.85,19.69 29.85,19.43 29.85,19.36 29.85,19.09 
			29.85,19.02 29.85,18.29 29.74,18.29 29.74,19.89 29.59,19.89 		"/>
		<polygon class="st0" points="26.52,24.77 26.52,24.91 28.34,24.91 28.34,24.77 28.23,24.64 28.23,24.77 		"/>
		<path class="st0" d="M19.82,21.77c0,0.22,0.04,0.42,0.13,0.59c0.19,0.35,0.44,0.56,0.77,0.73c0.13,0.07,0.27,0.12,0.41,0.16
			c0.14,0.04,0.28,0.07,0.41,0.09c0.14,0.02,0.27,0.03,0.39,0.03c0.22,0,0.45-0.03,0.7-0.09c0.25-0.06,0.48-0.15,0.69-0.28
			c0.21-0.13,0.38-0.3,0.52-0.5c0.14-0.2,0.21-0.45,0.21-0.73v-3.28l0.3-0.33v-0.13h-1.82v0.13l0.3,0.33v3.08
			c0,0.05-0.02,0.1-0.05,0.16c-0.03,0.06-0.09,0.11-0.16,0.15c-0.07,0.05-0.17,0.09-0.28,0.12c-0.12,0.03-0.25,0.05-0.41,0.05
			c-0.15,0-0.28-0.01-0.39-0.04c-0.11-0.02-0.2-0.06-0.27-0.1c-0.01-0.04-0.01-0.07-0.01-0.11v-3.04l0.3-0.33v-0.13h-0.11l-0.3,0.34
			v3.09c0,0.04,0.01,0.08,0.02,0.12c-0.1-0.08-0.15-0.17-0.15-0.27v-3.08l0.3-0.33v-0.13h-1.82v0.13l0.3,0.33V21.77z M23.14,18.19
			h0.64c0.04,0,0.06,0.03,0.06,0.07c0,0.04-0.03,0.07-0.06,0.07h-0.64c-0.03,0-0.06-0.03-0.06-0.07
			C23.07,18.22,23.1,18.19,23.14,18.19z M20.11,18.19h0.64c0.03,0,0.06,0.03,0.06,0.07c0,0.04-0.03,0.07-0.06,0.07h-0.64
			c-0.03,0-0.06-0.03-0.06-0.07C20.05,18.22,20.08,18.19,20.11,18.19z"/>
		<path class="st0" d="M11.22,23.24l-0.05-0.07l0.16-0.53h1.46l0.02,0.07h0l0.02,0.07h0l0.04,0.13l-0.12,0.2h0l-0.08,0.13l0.05,0.13
			h1.82l-0.05-0.13l-0.08-0.07l-1.47-4.41l0.19-0.33l-0.04-0.13h-0.11l-0.19,0.34l1.47,4.41l-0.17-0.13l-1.47-4.42l0.19-0.33
			l-0.04-0.13h-1.82l-0.04,0.13l0.2,0.33l-1.32,4.42l-0.4,0.33l-0.04,0.13h1.82L11.22,23.24z M11.37,18.19h1.01
			c0.03,0,0.06,0.03,0.06,0.07c0,0.04-0.03,0.07-0.06,0.07h-1.01c-0.03,0-0.06-0.03-0.06-0.07C11.3,18.22,11.33,18.19,11.37,18.19z
			 M12.03,20.32c0.09,0.26,0.18,0.52,0.26,0.77h-0.5C11.87,20.84,11.95,20.58,12.03,20.32z M11.68,21.1h-0.13l0.35-1.15l0.07,0.19
			L11.68,21.1z M11.02,22.91l0.16-0.54h1.54l0.04,0.13h-1.5l-0.16,0.54L11.02,22.91z"/>
		<path class="st0" d="M18.94,21.7h-0.13l-0.31,0.34h-1.24l1.92-2.59v-1.16h-0.11v1.09l-1.96,2.66h-0.16l1.99-2.7v-1.32h-3.88v1.67
			h0.13l0.31-0.34h1.71l-0.1,0.13h-1.49l-0.32,0.34v0.13h0.12l0.32-0.34H17l-1.95,2.62v1.14h3.88V21.7z M15.41,18.33
			c-0.03,0-0.06-0.03-0.06-0.07c0-0.04,0.03-0.07,0.06-0.07h3.16c0.03,0,0.06,0.03,0.06,0.07c0,0.04-0.03,0.07-0.06,0.07H15.41z"/>
		<polygon class="st0" points="11.26,23.51 9.56,23.51 9.52,23.64 11.34,23.64 11.38,23.51 11.3,23.38 		"/>
		<path class="st0" d="M22.79,26.91c0.18-0.74,0.03-1.39-0.54-1.93c-0.13-0.18-0.3-0.32-0.49-0.44c-0.2-0.11-0.41-0.17-0.66-0.17
			h-2.55v0.13l0.3,0.33v4.42l-0.3,0.34v0.13h3.15c0.23,0,0.43-0.04,0.62-0.12c0.73-0.31,1.15-1.4,0.81-2.16
			c-0.04-0.08-0.08-0.16-0.13-0.24c-0.05-0.08-0.09-0.15-0.13-0.21c0.99,1,0.43,2.86-1.05,2.86h-3.03V30h3.08
			c0.17,0,0.33-0.02,0.47-0.05c0.7-0.17,1.13-0.85,1.14-1.56C23.48,27.78,23.21,27.29,22.79,26.91z M19,24.61
			c0-0.04,0.03-0.07,0.06-0.07h2.01c0.17,0,0.34,0.04,0.5,0.11c0.03,0.01,0.05,0.06,0.03,0.09c-0.01,0.03-0.03,0.04-0.06,0.04
			c-0.01,0-0.02,0-0.02-0.01c-0.14-0.07-0.3-0.1-0.45-0.1h-2.01C19.03,24.68,19,24.65,19,24.61z M20.3,25.98h0.57h0.41
			c0.02,0,0.04,0,0.06,0c0.02,0,0.04,0,0.06,0.01c0,0.01,0.01,0.04,0.01,0.07l-0.01,0.07c-0.02,0.18-0.12,0.27-0.3,0.27h-0.8V25.98z
			 M20.18,25.85v0.54h-0.12v-0.67h1.03c0.07,0,0.13,0.02,0.17,0.05c0.05,0.03,0.08,0.07,0.1,0.12c-0.04-0.02-0.1-0.03-0.17-0.03
			H20.18z M20.18,28.39h-0.12v-0.67h1.64c0.04,0,0.08,0.01,0.11,0.02c0.06,0.02,0.11,0.07,0.15,0.14c-0.04-0.02-0.07-0.03-0.12-0.03
			c-0.04,0-0.08,0-0.13,0h-1.54V28.39z M22,28.13c-0.02,0.18-0.12,0.27-0.3,0.27h-1.4v-0.41h0.92h0.61c0.06,0,0.09,0,0.11,0
			s0.04,0,0.06,0.01c0,0.01,0.01,0.04,0.01,0.07L22,28.13z M22.66,26.78c-0.02-0.02-0.04-0.04-0.06-0.06
			c-0.02-0.02-0.05-0.04-0.07-0.05c0.17-0.53,0.1-1.09-0.19-1.55C22.72,25.59,22.84,26.17,22.66,26.78z"/>
		<path class="st0" d="M17.72,24.97v2.68c0,0.24,0,0.46-0.02,0.67c-0.06,1.14-1.23,1.53-2.1,1.53c-0.71,0-1.24-0.25-1.59-0.5
			c1.11,1.03,3.73,0.9,3.82-1.1c0-0.05,0-0.09,0-0.14V25.1l0.3-0.34v-0.13h-0.11L17.72,24.97z"/>
		<path class="st0" d="M4.84,27c0.02-0.03,0.03-0.06,0.04-0.09c0.01-0.04,0.01-0.08,0.01-0.12c0-0.07-0.01-0.13-0.03-0.17
			c-0.02-0.04-0.04-0.08-0.07-0.11c-0.03-0.03-0.06-0.04-0.09-0.05c-0.03-0.01-0.06-0.01-0.08-0.01H3.86v1.06h0.21v-0.36h0.44
			l0.13,0.36h0.23l-0.15-0.39c0.02-0.01,0.04-0.02,0.06-0.04C4.81,27.05,4.83,27.03,4.84,27z M4.67,26.85
			c-0.01,0.02-0.02,0.03-0.03,0.04c-0.01,0.01-0.02,0.02-0.03,0.02c-0.01,0-0.02,0.01-0.02,0.01H4.07v-0.24h0.51
			c0.01,0,0.02,0,0.03,0c0.01,0,0.02,0.01,0.03,0.02c0.01,0.01,0.02,0.02,0.03,0.04c0.01,0.02,0.01,0.04,0.01,0.06
			C4.68,26.81,4.68,26.83,4.67,26.85z"/>
		<path class="st0" d="M14.68,29.6c0.14,0.04,0.28,0.07,0.41,0.09c0.14,0.02,0.27,0.03,0.39,0.03c0.22,0,0.45-0.03,0.7-0.09
			c0.25-0.06,0.48-0.15,0.69-0.28c0.21-0.13,0.38-0.3,0.52-0.5c0.14-0.2,0.21-0.45,0.21-0.73v-3.28l0.3-0.33v-0.13h-1.82v0.13
			l0.3,0.33v3.08c0,0.05-0.02,0.1-0.05,0.16c-0.03,0.06-0.09,0.11-0.16,0.15c-0.07,0.05-0.17,0.09-0.28,0.12
			c-0.12,0.03-0.25,0.05-0.41,0.05c-0.15,0-0.28-0.01-0.39-0.04c-0.11-0.02-0.2-0.06-0.27-0.1c-0.01-0.04-0.01-0.07-0.01-0.11V25.1
			l0.3-0.34v-0.13H15l-0.3,0.34v3.09c0,0.04,0.01,0.08,0.02,0.12c-0.1-0.08-0.15-0.17-0.15-0.27v-3.08l0.3-0.33v-0.13h-1.82v0.13
			l0.3,0.33v3.28c0,0.22,0.04,0.42,0.13,0.59c0.19,0.35,0.44,0.56,0.77,0.73C14.4,29.5,14.54,29.55,14.68,29.6z M16.68,24.53h0.64
			c0.03,0,0.06,0.03,0.06,0.07c0,0.04-0.03,0.07-0.06,0.07h-0.64c-0.03,0-0.06-0.03-0.06-0.07C16.61,24.56,16.64,24.53,16.68,24.53z
			"/>
		<polygon class="st0" points="29.96,26.67 29.96,26.44 28.95,26.44 28.95,27.5 29.99,27.5 29.99,27.27 29.16,27.27 29.16,27.07 
			29.87,27.07 29.87,26.86 29.16,26.86 29.16,26.67 		"/>
		<path class="st0" d="M24.3,21.77v-3.01l0.3-0.33v-0.13h-0.12l-0.3,0.34v2.68c0,0.24,0,0.46-0.02,0.67
			c-0.06,1.14-1.23,1.53-2.1,1.53c-0.71,0-1.24-0.25-1.59-0.5c1.12,1.03,3.73,0.9,3.82-1.1C24.3,21.86,24.3,21.81,24.3,21.77z"/>
		<polygon class="st0" points="23.9,28.23 28.2,28.23 27.77,28.6 27.77,28.9 30,28.24 30,27.99 23.9,27.99 		"/>
		<polygon class="st0" points="24.02,26.44 24.02,27.5 24.23,27.5 24.23,27.07 24.84,27.07 24.84,27.5 25.05,27.5 25.05,26.44 
			24.84,26.44 24.84,26.84 24.23,26.84 24.23,26.44 		"/>
		<path class="st0" d="M26.55,26.44v0.53c0,0.08,0.01,0.15,0.03,0.22c0.02,0.07,0.06,0.13,0.1,0.18c0.04,0.05,0.1,0.09,0.16,0.12
			c0.06,0.03,0.13,0.05,0.21,0.05c0.08,0,0.15-0.01,0.21-0.05c0.06-0.03,0.11-0.07,0.16-0.12c0.04-0.05,0.08-0.11,0.1-0.18
			c0.02-0.07,0.03-0.14,0.03-0.22v-0.53h-0.21v0.53c0,0.05-0.01,0.09-0.02,0.13c-0.01,0.04-0.03,0.08-0.05,0.11
			c-0.02,0.03-0.05,0.06-0.09,0.07c-0.04,0.02-0.08,0.03-0.13,0.03c-0.05,0-0.09-0.01-0.13-0.03c-0.04-0.02-0.07-0.04-0.09-0.07
			c-0.02-0.03-0.04-0.07-0.05-0.11c-0.01-0.04-0.02-0.08-0.02-0.13v-0.53H26.55z"/>
		<path class="st0" d="M25.57,27.49c0.07,0.03,0.15,0.05,0.24,0.05c0.09,0,0.17-0.01,0.24-0.05c0.07-0.03,0.13-0.07,0.18-0.12
			c0.05-0.05,0.09-0.11,0.11-0.18c0.03-0.07,0.04-0.14,0.04-0.22c0-0.08-0.01-0.15-0.04-0.22c-0.03-0.07-0.06-0.13-0.11-0.18
			c-0.05-0.05-0.11-0.09-0.18-0.12c-0.07-0.03-0.15-0.05-0.24-0.05c-0.09,0-0.17,0.02-0.24,0.05c-0.07,0.03-0.13,0.07-0.18,0.12
			c-0.05,0.05-0.09,0.11-0.11,0.18c-0.03,0.07-0.04,0.14-0.04,0.22c0,0.08,0.01,0.15,0.04,0.22c0.03,0.07,0.06,0.13,0.11,0.18
			C25.44,27.42,25.5,27.46,25.57,27.49z M25.49,26.84c0.01-0.04,0.04-0.08,0.06-0.11c0.03-0.03,0.06-0.06,0.11-0.07
			c0.04-0.02,0.09-0.03,0.15-0.03c0.06,0,0.11,0.01,0.15,0.03c0.04,0.02,0.08,0.04,0.11,0.07c0.03,0.03,0.05,0.07,0.06,0.11
			c0.01,0.04,0.02,0.08,0.02,0.13c0,0.05-0.01,0.09-0.02,0.13c-0.01,0.04-0.04,0.08-0.06,0.11c-0.03,0.03-0.06,0.06-0.11,0.07
			c-0.04,0.02-0.09,0.03-0.15,0.03c-0.06,0-0.11-0.01-0.15-0.03c-0.04-0.02-0.08-0.04-0.11-0.07c-0.03-0.03-0.05-0.07-0.06-0.11
			c-0.01-0.04-0.02-0.08-0.02-0.13C25.47,26.93,25.48,26.88,25.49,26.84z"/>
		<polygon class="st0" points="10.43,29.87 8.73,29.87 8.73,30 10.55,30 10.55,29.87 10.43,29.73 		"/>
		<polygon class="st0" points="14.89,23.64 14.84,23.51 14.68,23.38 14.73,23.51 13.03,23.51 13.07,23.64 		"/>
		<polygon class="st0" points="7.38,26.67 7.38,26.44 6.37,26.44 6.37,27.5 7.41,27.5 7.41,27.27 6.58,27.27 6.58,27.07 7.28,27.07 
			7.28,26.86 6.58,26.86 6.58,26.67 		"/>
		<polygon class="st0" points="6.12,26.67 6.12,26.44 5.11,26.44 5.11,27.5 6.15,27.5 6.15,27.27 5.32,27.27 5.32,27.07 6.03,27.07 
			6.03,26.86 5.32,26.86 5.32,26.67 		"/>
		<rect x="2" y="25.69" class="st0" width="6.1" height="0.24"/>
		<path class="st0" d="M28.03,26.67c0.03-0.01,0.07-0.02,0.11-0.02c0.04-0.01,0.09-0.01,0.13-0.01c0.03,0,0.07,0,0.1,0.01
			c0.04,0.01,0.07,0.01,0.1,0.02c0.03,0.01,0.07,0.02,0.1,0.03c0.03,0.01,0.06,0.02,0.08,0.04l0.06-0.21
			c-0.05-0.03-0.1-0.05-0.16-0.07c-0.05-0.01-0.1-0.03-0.14-0.03c-0.05-0.01-0.1-0.01-0.15-0.01c-0.08,0-0.16,0.01-0.22,0.03
			c-0.07,0.02-0.12,0.04-0.17,0.07c-0.05,0.03-0.08,0.07-0.11,0.11c-0.03,0.04-0.04,0.09-0.04,0.14c0,0.05,0.01,0.09,0.02,0.13
			c0.02,0.04,0.04,0.07,0.07,0.09c0.03,0.02,0.06,0.04,0.1,0.06c0.04,0.01,0.08,0.02,0.13,0.02c0.05,0,0.09,0.01,0.13,0.01
			c0.04,0,0.08,0,0.12,0.01c0.03,0,0.07,0,0.09,0c0.02,0,0.04,0,0.05,0c0.04,0,0.07,0.01,0.09,0.02c0.02,0.01,0.03,0.03,0.03,0.06
			c0,0.04-0.03,0.08-0.09,0.11c-0.06,0.03-0.15,0.04-0.27,0.04c-0.04,0-0.08-0.01-0.12-0.01c-0.04-0.01-0.08-0.02-0.12-0.03
			c-0.04-0.02-0.09-0.04-0.13-0.07l-0.07,0.21c0.05,0.03,0.1,0.06,0.15,0.07c0.05,0.02,0.1,0.03,0.15,0.04
			c0.05,0.01,0.1,0.02,0.15,0.02c0.1,0,0.18-0.01,0.25-0.03c0.07-0.02,0.13-0.05,0.17-0.08c0.05-0.03,0.08-0.08,0.1-0.12
			c0.02-0.05,0.03-0.1,0.03-0.15c0-0.05-0.01-0.09-0.02-0.12c-0.01-0.04-0.04-0.06-0.06-0.09c-0.03-0.02-0.06-0.04-0.1-0.06
			c-0.04-0.01-0.08-0.02-0.13-0.02c-0.1-0.01-0.18-0.01-0.25-0.01c-0.07,0-0.12-0.01-0.16-0.01c-0.03,0-0.06-0.01-0.08-0.02
			c-0.02-0.01-0.03-0.03-0.03-0.06c0-0.02,0.01-0.04,0.03-0.05C27.97,26.69,28,26.68,28.03,26.67z"/>
		<rect x="23.9" y="25.69" class="st0" width="6.1" height="0.24"/>
		<path class="st0" d="M12.69,25.72c-0.11-0.29-0.28-0.53-0.5-0.74c-0.13-0.18-0.3-0.32-0.49-0.44c-0.2-0.11-0.41-0.17-0.66-0.17
			H8.5v0.13l0.3,0.33v4.42L8.5,29.6v0.13h1.82V29.6l-0.07-0.07v-1.54h0.85c0.47,0,1.03-0.13,1.36-0.53l0.05-0.07
			c0.31-0.42,0.38-1.13,0.21-1.61L12.69,25.72z M8.95,24.61c0-0.04,0.03-0.07,0.06-0.07h2.01c0.17,0,0.34,0.04,0.5,0.11
			c0.03,0.01,0.05,0.06,0.03,0.09c-0.01,0.03-0.03,0.04-0.06,0.04c-0.01,0-0.02,0-0.02-0.01c-0.14-0.07-0.3-0.1-0.45-0.1H9.01
			C8.98,24.68,8.95,24.65,8.95,24.61z M10.25,25.98h0.67h0.31c0.02,0,0.04,0,0.06,0c0.02,0,0.04,0,0.06,0.01
			c0,0.01,0.01,0.04,0.01,0.07l-0.01,0.07c-0.02,0.18-0.12,0.27-0.3,0.27h-0.8V25.98z M10.13,25.85v0.54h-0.12v-0.67h1.03
			c0.07,0,0.13,0.02,0.17,0.05c0.05,0.03,0.08,0.07,0.1,0.12c-0.04-0.02-0.1-0.03-0.17-0.03H10.13z M12.3,27.37
			c-0.13,0.15-0.29,0.27-0.49,0.35c-0.2,0.09-0.43,0.13-0.7,0.13h-0.98v1.54l-0.12-0.13v-1.54h1.03c0.23,0,0.43-0.04,0.62-0.12
			c0.19-0.08,0.35-0.19,0.48-0.34c0.13-0.15,0.24-0.32,0.31-0.53c0.2-0.54,0.14-1.14-0.17-1.62c0.12,0.15,0.22,0.32,0.29,0.5
			C12.8,26.17,12.68,26.94,12.3,27.37z"/>
	</g>
	<g>
		<path class="st1" d="M18.06,16.6c0.43-0.53,0.71-1.26,0.72-2.16c0-0.2-0.01-0.41-0.04-0.63c-0.19-1.44-1.26-3.58-2.02-5.11
			c-0.28-0.56-0.52-1.05-0.67-1.39c-0.14,0.33-0.38,0.81-0.66,1.36c-0.77,1.53-1.85,3.67-2.05,5.11c-0.03,0.22-0.05,0.43-0.05,0.64
			c0,0.9,0.28,1.63,0.71,2.16c0.43,0.53,1.02,0.86,1.63,0.96c0.13,0.02,0.27,0.03,0.4,0.03c0.13,0,0.27-0.01,0.4-0.03
			C17.04,17.45,17.62,17.12,18.06,16.6z M13.66,14.43c0-1.24,0.75-2.84,1.24-3.87c-0.66,2.22-1.44,4.84,0.72,6.51
			C14.52,16.84,13.66,15.89,13.66,14.43z M17.44,13.87c-0.25,0.18-0.47-0.29-0.65-1.43c-0.16-0.98-0.33-2.8-0.37-3.36
			c0.18,0.46,0.85,1.79,1.1,2.7C17.8,12.85,17.69,13.69,17.44,13.87z"/>
		<path class="st1" d="M24.45,16.89v-0.4c0-0.31-0.23-0.56-0.51-0.56h-0.88V8.58c0.2-0.16,0.36-0.39,0.42-0.67
			c0.16-0.64-0.19-1.3-0.77-1.48c-0.09-0.03-0.19-0.04-0.28-0.04c-0.49,0-0.93,0.37-1.05,0.89v0l-0.13-0.04
			c0.07-0.29,0.23-0.54,0.43-0.71L11.8,3.61l-0.12-2.02c0-0.07,0.01-0.13-0.02-0.19c-0.03-0.06-0.08-0.1-0.14-0.12l-0.47-0.14
			l-0.47-0.14C10.52,0.99,10.46,1,10.41,1.03c-0.05,0.03-0.07,0.09-0.1,0.15L8.86,3.58l0,4.73c0,0.07-0.01,0.13,0.02,0.19
			c0.03,0.06,0.08,0.1,0.14,0.12l0.06,0.02v6.86H8.42c-0.19,0-0.34,0.17-0.34,0.38v0.38h0.44v0.64H2v0.24h9.44h2.91
			c-0.16-0.13-0.32-0.28-0.46-0.45c-0.45-0.55-0.74-1.32-0.74-2.25c0-0.21,0.02-0.43,0.05-0.66c0.2-1.47,1.29-3.62,2.07-5.16
			c0.31-0.62,0.57-1.14,0.7-1.47h0.07h0.07h1.21l0.04,0.14h-1.2c0.02,0.06,0.05,0.12,0.08,0.18h1.17l0.04,0.14h-1.15
			c0.03,0.06,0.06,0.12,0.09,0.18h1.11l0.04,0.14h-1.09c0.03,0.06,0.06,0.12,0.09,0.18h1.05l0.04,0.14h-1.03
			c0.03,0.06,0.06,0.12,0.09,0.18h0.99l0.04,0.14h-0.96c0.01,0.02,0.02,0.04,0.03,0.07c0.02,0.04,0.04,0.08,0.06,0.11h0.93
			l0.04,0.14h-0.9C16.97,8.94,17,9,17.03,9.06h0.86l0.04,0.14H17.1c0.03,0.06,0.06,0.12,0.09,0.18h0.8l0.04,0.14h-0.77
			c0.03,0.06,0.06,0.12,0.09,0.18h0.74l0.04,0.14h-0.71c0.03,0.06,0.06,0.12,0.09,0.18h0.68l0.04,0.14h-0.66
			c0.03,0.06,0.06,0.12,0.08,0.18h0.63l0.04,0.14h-0.6c0.03,0.06,0.05,0.12,0.08,0.18h0.58l0.04,0.14h-0.55
			c0.03,0.06,0.05,0.12,0.08,0.18h0.53l0.04,0.14H18c0.03,0.06,0.05,0.12,0.08,0.18h0.49l0.04,0.14h-0.47
			c0.02,0.06,0.05,0.12,0.07,0.18h0.45l0.04,0.14h-0.44c0.02,0.06,0.05,0.12,0.07,0.18h0.42l0.04,0.14h-0.41
			c0.02,0.06,0.04,0.12,0.07,0.18h0.4l0.04,0.14h-0.39c0.02,0.06,0.04,0.12,0.06,0.18h0.39l0.04,0.14h-0.39
			c0.02,0.06,0.04,0.12,0.05,0.18h0.38l0.04,0.14H18.7c0.02,0.06,0.03,0.12,0.05,0.18h0.4l0.04,0.14h-0.41
			c0.01,0.06,0.03,0.12,0.04,0.18h0.42l0.04,0.14h-0.44c0.01,0.03,0.01,0.06,0.02,0.1c0,0.03,0.01,0.06,0.01,0.08h0.47l0.04,0.14
			h-0.5c0.01,0.06,0.01,0.12,0.01,0.18h0.54l0.04,0.14h-0.58c0,0.04,0,0.07,0,0.11c0,0.02,0,0.05,0,0.07h0.63l0.04,0.14h-0.68
			c0,0.06-0.01,0.12-0.01,0.18h0.75l0.04,0.14h-0.8c-0.01,0.06-0.02,0.12-0.03,0.18h0.88l0.04,0.14h-0.96
			c-0.01,0.06-0.03,0.12-0.04,0.18h1.05l0.04,0.14h-1.14c-0.02,0.06-0.04,0.12-0.06,0.18h1.25l0.04,0.14h-1.35
			c-0.03,0.06-0.06,0.12-0.08,0.18h1.49l0.04,0.14h-1.6c-0.03,0.06-0.07,0.12-0.11,0.18h1.77l0.04,0.14h-1.91
			c-0.03,0.04-0.06,0.08-0.09,0.12c-0.02,0.02-0.04,0.04-0.05,0.06h2.11l0.04,0.14h-2.27c-0.08,0.09-0.18,0.16-0.27,0.24h2.86H30
			v-0.24H24.45z M22.78,15.93h-0.68V8.74c0.02,0.01,0.04,0.02,0.06,0.02c0.09,0.03,0.19,0.04,0.28,0.04c0.12,0,0.23-0.02,0.34-0.06
			V15.93z M22.07,7.49c0.04-0.18,0.19-0.31,0.36-0.31c0.03,0,0.06,0,0.1,0.01c0.1,0.03,0.18,0.1,0.23,0.19
			c0.05,0.1,0.06,0.21,0.04,0.31C22.74,7.92,22.54,8.06,22.34,8c-0.1-0.03-0.18-0.1-0.23-0.19C22.06,7.71,22.05,7.6,22.07,7.49z
			 M20.91,6.51L21.2,6.6c0.03,0.01,0.05,0.05,0.04,0.09c-0.01,0.03-0.03,0.05-0.06,0.05c-0.01,0-0.01,0-0.02,0l-0.29-0.09
			c-0.03-0.01-0.05-0.05-0.04-0.09C20.84,6.53,20.88,6.5,20.91,6.51z M12.25,3.95l8.34,2.47c0.03,0.01,0.05,0.05,0.04,0.09
			c-0.01,0.03-0.03,0.05-0.06,0.05c-0.01,0-0.01,0-0.02,0l-8.34-2.47C12.18,4.07,12.16,4.03,12.17,4
			C12.18,3.96,12.21,3.94,12.25,3.95z M10.99,1.38l0.47,0.14l0.01,0.15l-0.51-0.15L10.99,1.38z M10.92,1.69l0.56,0.17L11.49,2
			l-0.6-0.18L10.92,1.69z M10.84,2l0.66,0.19l0.01,0.15l-0.7-0.21L10.84,2z M10.77,2.31l0.75,0.22l0.01,0.15l-0.79-0.24L10.77,2.31z
			 M10.69,2.62l0.85,0.25l0.01,0.15l-0.89-0.26L10.69,2.62z M10.62,2.93l0.94,0.28l0.01,0.15l-0.98-0.29L10.62,2.93z M10.54,3.24
			l1.04,0.31l0.01,0.15l-1.08-0.32L10.54,3.24z M10.47,3.54l1.13,0.34l0.01,0.15l-1.17-0.35L10.47,3.54z M10.39,3.85l1.23,0.36
			l0.01,0.15l0,0l-1.27-0.38L10.39,3.85z M9.07,3.88c0-0.04,0.03-0.07,0.06-0.07c0.03,0,0.06,0.03,0.06,0.07l0,3.67
			c0,0.04-0.03,0.07-0.06,0.07c-0.03,0-0.06-0.03-0.06-0.07L9.07,3.88z M9.07,7.92c0-0.08,0.13-0.08,0.13,0v0.33
			c0,0.04-0.03,0.07-0.06,0.07c-0.03,0-0.06-0.03-0.06-0.07V7.92z M14.62,6.53l-3.11,10.36H9.93v-0.64h0.44v-0.38
			c0-0.21-0.15-0.38-0.34-0.38H9.37V8.71l0.06,0.02C9.49,8.75,9.55,8.74,9.6,8.71c0.05-0.03,0.07-0.09,0.1-0.15l2.14-4.09h0V5.3
			L16,6.53H14.62z M20.49,16.89l-2.97-9.91l3.96,1.17c0.01,0.02,0.01,0.03,0.02,0.05c0.08,0.15,0.19,0.28,0.32,0.38v7.35v0.82v0.14
			H20.49z"/>
	</g>
</g>
</svg>
