<?xml version="1.0" encoding="UTF-8" standalone="no"?>
<svg
   xmlns:dc="http://purl.org/dc/elements/1.1/"
   xmlns:cc="http://creativecommons.org/ns#"
   xmlns:rdf="http://www.w3.org/1999/02/22-rdf-syntax-ns#"
   xmlns:svg="http://www.w3.org/2000/svg"
   xmlns="http://www.w3.org/2000/svg"
   xmlns:sodipodi="http://sodipodi.sourceforge.net/DTD/sodipodi-0.dtd"
   xmlns:inkscape="http://www.inkscape.org/namespaces/inkscape"
   version="1.1"
   width="175pt"
   height="45pt"
   viewBox="0 0 175 45.000001"
   id="svg3993"
   inkscape:version="0.91 r13725"
   sodipodi:docname="Petrus_beer_logo2.svg">
  <metadata
     id="metadata4265">
    <rdf:RDF>
      <cc:Work
         rdf:about="">
        <dc:format>image/svg+xml</dc:format>
        <dc:type
           rdf:resource="http://purl.org/dc/dcmitype/StillImage" />
        <dc:title></dc:title>
      </cc:Work>
    </rdf:RDF>
  </metadata>
  <defs
     id="defs4263" />
  <sodipodi:namedview
     pagecolor="#ffffff"
     bordercolor="#666666"
     borderopacity="1"
     objecttolerance="10"
     gridtolerance="10"
     guidetolerance="10"
     inkscape:pageopacity="0"
     inkscape:pageshadow="2"
     inkscape:window-width="1920"
     inkscape:window-height="1017"
     id="namedview4261"
     showgrid="false"
     inkscape:zoom="1.6366925"
     inkscape:cx="308.25509"
     inkscape:cy="170.56766"
     inkscape:window-x="-8"
     inkscape:window-y="-8"
     inkscape:window-maximized="1"
     inkscape:current-layer="svg3993"
     fit-margin-top="0"
     fit-margin-left="0"
     fit-margin-right="0"
     fit-margin-bottom="0" />
  <rect
     style="opacity:1;fill:#000000;fill-opacity:1;fill-rule:evenodd;stroke:none;stroke-width:0;stroke-linecap:round;stroke-linejoin:miter;stroke-miterlimit:2.66666675;stroke-dasharray:none;stroke-dashoffset:0;stroke-opacity:1"
     id="rect3345"
     width="175"
     height="45"
     x="0"
     y="0" />
  <path
     inkscape:connector-curvature="0"
     style="fill:#ffffff"
     d="m 82.099432,14.27353 c 0,0.221 -0.179,0.399 -0.399,0.399 l -1.049,0 c -0.184,0 -0.346,-0.126 -0.39,-0.308 -0.577,-2.448 -1.672,-4.077 -5.136,-4.077 l -0.509,0 0,24.212 2.402,0 c 0.221,0 0.402,0.18 0.402,0.401 l 0,1.647 c 0,0.222 -0.181,0.401 -0.402,0.401 l -10.753,0 c -0.22,0 -0.399,-0.179 -0.399,-0.401 0,-0.221 0.179,-0.399 0.399,-0.399 l 10.354,0 0,-0.848 -2.402,0 c -0.223,0 -0.401,-0.179 -0.401,-0.4 l 0,-25.013 c 0,-0.222 0.178,-0.4 0.401,-0.4 l 0.908,0 c 4.048,0 5.26,2.167 5.837,4.386 l 0.338,0 0,-6.338 c 0,-0.22 0.179,-0.4 0.4,-0.4 0.22,0 0.399,0.18 0.399,0.4 z m -34.593004,-4.582 0,8.792 c 0,0.221 -0.18,0.402 -0.401,0.402 -0.222,0 -0.4,-0.181 -0.4,-0.402 l 0,-9.194 c 0,-0.221 0.178,-0.399 0.4,-0.399 l 19.160004,0 c 0.223,0 0.402,0.178 0.402,0.399 0,0.223 -0.179,0.402 -0.402,0.402 z m 9.366,12.341 c 0.221,0 0.4,0.178 0.4,0.4 l 0,1.589 0.638,0 0,-6.196 c 0,-0.221 0.179,-0.399 0.402,-0.399 0.22,0 0.399,0.178 0.399,0.399 l 0,6.597 c 0,0.221 -0.179,0.4 -0.399,0.4 l -1.44,0 c -0.222,0 -0.4,-0.179 -0.4,-0.4 l 0,-1.59 -8.966,0 0,10.466 c 0,0.219 -0.18,0.4 -0.401,0.4 -0.222,0 -0.4,-0.181 -0.4,-0.4 l 0,-10.866 c 0,-0.222 0.178,-0.4 0.4,-0.4 z m 4.406,14.179 0,-5.832 c 0,-0.222 0.18,-0.402 0.401,-0.402 0.221,0 0.4,0.18 0.4,0.402 l 0,6.233 c 0,0.221 -0.179,0.401 -0.4,0.401 l -24.604,0 c -0.222,0 -0.401,-0.18 -0.401,-0.401 0,-0.221 0.179,-0.401 0.401,-0.401 z m -25.112,-29.576 0,3.527 2.082,0 0,23.831 -2.082,0 0,3.527 26.421,0 0,-8.049 -3.254,0 c 0,3.753 -2.849,4.522 -6.693,4.522 l -4.628,0 0,-10.654 7.951,0 0,1.991 3.256,0 0,-8.413 -3.256,0 0,2.26 -7.951,0 0,-8.979 17.347004,0 0,27.259 12.568,0 0,-3.464 -2.802,0 0,-23.198 c 3.255,0 4.249,1.447 4.793,4.383 l 2.691,0 -0.022,-8.55 z"
     id="path4150-4" />
  <path
     inkscape:connector-curvature="0"
     style="fill:#ffffff"
     d="m 141.96564,36.87233 c -0.075,0.089 -0.187,0.141 -0.305,0.141 l -9.138,0 c -0.221,0 -0.4,-0.18 -0.4,-0.402 0,-0.22 0.179,-0.4 0.4,-0.4 l 8.67,0 c -0.033,-0.204 -0.107,-0.669 -0.146,-0.911 l -1.078,0 c -0.22,0 -0.398,-0.179 -0.398,-0.399 l 0,-27.359 c 0,-0.22 0.178,-0.399 0.398,-0.399 0.222,0 0.402,0.179 0.402,0.399 l 0,26.957 1.018,0 c 0.196,0 0.364,0.143 0.395,0.338 l 0.273,1.712 c 0.02,0.116 -0.014,0.234 -0.091,0.323 m -11.224,-2.038 c -0.957,1.372 -4.512,2.9 -8.085,2.9 -0.222,0 -0.4,-0.179 -0.4,-0.4 0,-0.221 0.178,-0.399 0.4,-0.399 3.446,0 6.701,-1.518 7.428,-2.56 0.127,-0.181 0.376,-0.226 0.558,-0.098 0.181,0.124 0.225,0.376 0.099,0.557 m -8.578,-27.292 c 0,-0.22 0.179,-0.399 0.401,-0.399 0.22,0 0.4,0.179 0.4,0.399 l 0,20.436 c 0,3.357 0.72,5.438 4.305,5.438 0.222,0 0.4,0.179 0.4,0.399 0,0.22 -0.178,0.401 -0.4,0.401 -4.487,0 -5.106,-2.997 -5.106,-6.238 z m 18.714,26.451 0,-27.358 -11.753,0 0,3.527 1.987,0 0,17.816 c 0,3.572 -0.859,4.929 -3.842,4.929 -2.984,0 -3.798,-1.357 -3.798,-4.929 l 0,-21.343 -11.845,0 0,3.527 2.078,0 0,17.682 c 0,6.059 2.217,10.399 8.952,10.399 3.324,0 6.545,-1.246 7.993,-2.558 l 1.026,1.835 11.05,0 -0.564,-3.527 z"
     id="path4152-0" />
  <path
     inkscape:connector-curvature="0"
     style="fill:#ffffff"
     d="m 153.58504,37.73492 c -2.971,0 -5.83,-0.773 -8.995,-2.435 -0.196,-0.104 -0.271,-0.345 -0.169,-0.541 0.105,-0.195 0.345,-0.272 0.542,-0.169 3.045,1.599 5.784,2.345 8.622,2.345 5.81,0 12.03,-3.617 12.03,-9.001 0,-0.221 0.18,-0.4 0.401,-0.4 0.221,0 0.399,0.179 0.399,0.4 0,5.863 -6.633,9.801 -12.83,9.801 m 1.054,-11.748 c -5.152,-1.871 -10.99,-3.989 -10.99,-9.992 0,-0.22 0.18,-0.399 0.401,-0.399 0.221,0 0.401,0.179 0.401,0.399 0,5.443 5.557,7.459 10.461,9.241 3.8,1.378 7.081,2.568 7.081,5.41 0,0.222 -0.178,0.401 -0.399,0.401 -0.223,0 -0.402,-0.179 -0.402,-0.401 0,-2.28 -3.037,-3.383 -6.553,-4.659 m -2.772,-16.589 c 3.674,0 6.989,2.858 9.475,5.108 0.429,-0.641 3.948,-5.908 3.948,-5.908 0.124,-0.182 0.372,-0.232 0.556,-0.11 0.184,0.124 0.232,0.373 0.11,0.557 l -4.206,6.292 c -0.065,0.097 -0.169,0.161 -0.285,0.175 -0.114,0.015 -0.231,-0.023 -0.316,-0.101 -2.561,-2.321 -5.746,-5.212 -9.282,-5.212 -1.346,0 -2.991,1.172 -2.991,2.54 0,0.222 -0.179,0.4 -0.401,0.4 -0.221,0 -0.4,-0.178 -0.4,-0.4 0,-1.882 2.038,-3.341 3.792,-3.341 m -2.486,3.341 c 0,-1.084 1.449,-2.035 2.486,-2.035 3.663,0 7.145,3.483 9.721,5.788 l 5.289,-7.913 -2.849,-1.944 -1.31,1.763 c -2.259,-1.401 -5.107,-2.488 -7.775,-2.488 -6.601,0 -11.8,4.163 -11.8,10.085 0,10.629 17.543,9.86 17.543,14.651 0,1.765 -1.359,2.442 -2.851,2.442 -3.571,0 -6.851,-2.274 -9.578,-4.805 l -4.803,6.981 c 3.108,1.768 6.425,2.979 10.131,2.979 6.738,0 13.339,-4.34 13.339,-10.309 0,-12.166 -17.543,-9.994 -17.543,-15.195"
     id="path4154-4" />
  <path
     inkscape:connector-curvature="0"
     style="fill:#ffffff"
     d="m 32.960338,26.11543 c -2.006,1.509 -4.916,2.307 -8.416,2.307 -1.471,0 -2.939,-0.138 -4.239,-0.398 0,0 -0.308,-0.062 -0.607,-0.121 l 0,6.596 2.537,0 c 0.222,0 0.4,0.18 0.4,0.401 l 0,1.712 c 0,0.221 -0.178,0.401 -0.4,0.401 l -13.0570001,0 c -0.22,0 -0.4,-0.18 -0.4,-0.401 0,-0.221 0.18,-0.401 0.4,-0.401 l 12.6570001,0 0,-0.911 -2.538,0 c -0.22,0 -0.4,-0.179 -0.4,-0.4 l 0,-7.487 c 0,-0.118 0.053,-0.231 0.147,-0.308 0.092,-0.075 0.214,-0.105 0.331,-0.083 l 1.087,0.217 c 1.251,0.25 2.662,0.382 4.082,0.382 3.325,0 6.07,-0.741 7.935,-2.146 2.088,-1.569 3.146,-4.014 3.146,-7.264 0,-0.221 0.179,-0.402 0.399,-0.402 0.223,0 0.401,0.181 0.401,0.402 0,3.516 -1.166,6.176 -3.465,7.904 m -5.793,-7.588 c 0,2.76 -0.271,7.146 -4.069,7.146 -2.08,0 -2.893,-1.04 -2.893,-2.625 l 0,-12.886 c 4.973,0 6.962,4.069 6.962,8.365 m -8.27,-9.273 c 0,-0.221 0.18,-0.401 0.4,-0.401 l 0.908,0 c 2.724,0 4.939,1.078 6.407,3.116 0.129,0.18 0.088,0.431 -0.09,0.558 -0.18,0.13 -0.43,0.089 -0.56,-0.09 -1.309,-1.82 -3.301,-2.783 -5.757,-2.783 l -0.507,0 0,13.394 c 0,0.222 -0.18,0.402 -0.401,0.402 -0.22,0 -0.4,-0.18 -0.4,-0.402 z m 1.533,-2.619 -11.9340001,0 0,3.527 1.9450001,0 0,23.831 -2.1710001,0 0,3.527 14.8740001,0 0,-3.527 -2.939,0 0,-5.471 c 1.355,0.272 2.848,0.408 4.339,0.408 6.738,0 12.389,-2.848 12.389,-10.719 0,-9.902 -8.364,-11.576 -16.503,-11.576"
     id="path4156-4" />
  <path
     inkscape:connector-curvature="0"
     style="fill:#ffffff"
     d="m 131.27173,42.20132 c -0.042,0.107 -0.129,0.191 -0.237,0.23 -1.775,0.634 -5.374,1.741 -9.537,2.006 -7.566,0.477 -13.24899,-1.943 -16.89199,-7.2 0,0 -6.890004,-10.281 -7.120004,-10.624 l -2.453004,0 0,7.886 1.773004,0 c 0.221,0 0.399,0.18 0.399,0.402 l 0,1.71 c 0,0.222 -0.178,0.402 -0.399,0.402 l -12.202004,0 c -0.221,0 -0.4,-0.18 -0.4,-0.402 0,-0.22 0.179,-0.4 0.4,-0.4 l 11.802,0 0,-0.911 -1.771,0 c -0.221,0 -0.4,-0.179 -0.4,-0.399 l 0,-8.689 c 0,-0.221 0.179,-0.4 0.4,-0.4 l 3.064004,0 c 0.134,0 0.259,0.067 0.334,0.177 l 7.234004,10.797 c 3.46899,5.006 8.91399,7.31 16.18199,6.85 3.752,-0.237 7.037,-1.177 8.884,-1.809 l -0.031,-0.059 c -0.03,-0.057 -0.044,-0.12 -0.044,-0.182 0,-0.145 0.079,-0.285 0.217,-0.357 0.197,-0.099 0.437,-0.025 0.539,0.174 l 0.242,0.468 c 0.053,0.101 0.058,0.223 0.016,0.33 m -29.44595,-25.302 c 0,4.207 -2.035004,6.874 -6.284008,6.874 l 0,-13.611 c 4.524008,0 6.284008,2.351 6.284008,6.737 m -7.591048,-7.645 c 0,-0.221 0.179,-0.401 0.4,-0.401 l 0.907,0 c 5.038008,0 7.592008,2.707 7.592008,8.046 0,0.22 -0.179,0.4 -0.399,0.4 -0.221,0 -0.4,-0.18 -0.4,-0.4 0,-4.942 -2.159,-7.245 -6.793008,-7.245 l -0.509,0 0,14.119 c 0,0.221 -0.178,0.4 -0.398,0.4 -0.221,0 -0.4,-0.179 -0.4,-0.4 z m 10.608008,14.97 c 3.306,-1.254 5.44199,-4.13 5.44199,-7.325 0,-0.222 0.179,-0.399 0.4,-0.399 0.222,0 0.401,0.177 0.401,0.399 0,3.529 -2.34,6.698 -5.95899,8.073 -0.206,0.079 -0.437,-0.026 -0.517,-0.232 -0.078,-0.207 0.025,-0.438 0.233,-0.516 m 6.65299,9.769 -6.18799,-8.546 c 3.57399,-1.357 6.28399,-4.614 6.28399,-8.548 0,-8.863 -9.62899,-10.264 -13.516994,-10.264 l -14.288004,0 0,3.527 1.988,0 0,23.831 -2.08,0 0,3.527 14.018004,0 0,-3.527 -2.171004,0 0,-6.873 1.673004,0 6.968004,10.4 c 9.07199,13.088 27.98999,5.02 27.98999,5.02 l -1.119,-2.167 c -9.496,5.03 -15.71,-0.836 -19.558,-6.38"
     id="path4158-7" />
</svg>
